<svg width="161" height="32" viewBox="0 0 161 32" fill="none" xmlns="http://www.w3.org/2000/svg">
<g filter="url(#filter0_d_4_37)">
<path d="M32.8887 9.72266C34.1191 9.72266 35.1348 9.8724 35.9355 10.1719C36.7428 10.4714 37.3418 10.9271 37.7324 11.5391C38.1296 12.151 38.3281 12.929 38.3281 13.873C38.3281 14.5762 38.1979 15.1751 37.9375 15.6699C37.6771 16.1647 37.3353 16.5749 36.9121 16.9004C36.4889 17.2259 36.0365 17.4863 35.5547 17.6816L39.6074 24H36.9609L33.5137 18.2773H31.2188V24H28.875V9.72266H32.8887ZM32.7324 11.6758H31.2188V16.3438H32.8398C33.9271 16.3438 34.7148 16.1419 35.2031 15.7383C35.6979 15.3346 35.9453 14.7389 35.9453 13.9512C35.9453 13.1243 35.6816 12.5384 35.1543 12.1934C34.6335 11.8483 33.8262 11.6758 32.7324 11.6758ZM45.7207 12.9844C46.6842 12.9844 47.5111 13.1829 48.2012 13.5801C48.8913 13.9772 49.4219 14.5404 49.793 15.2695C50.1641 15.9987 50.3496 16.8711 50.3496 17.8867V19.1172H43.1328C43.1589 20.1654 43.4388 20.9727 43.9727 21.5391C44.513 22.1055 45.2682 22.3887 46.2383 22.3887C46.9284 22.3887 47.5469 22.3236 48.0938 22.1934C48.6471 22.0566 49.2168 21.8581 49.8027 21.5977V23.4629C49.2624 23.7168 48.7122 23.9023 48.1523 24.0195C47.5924 24.1367 46.9219 24.1953 46.1406 24.1953C45.0794 24.1953 44.1452 23.9902 43.3379 23.5801C42.5371 23.1634 41.9089 22.5449 41.4531 21.7246C41.0039 20.9043 40.7793 19.8854 40.7793 18.668C40.7793 17.457 40.9844 16.4284 41.3945 15.582C41.8047 14.7357 42.3809 14.0911 43.123 13.6484C43.8652 13.2057 44.7311 12.9844 45.7207 12.9844ZM45.7207 14.7129C44.998 14.7129 44.4121 14.9473 43.9629 15.416C43.5202 15.8848 43.2598 16.5716 43.1816 17.4766H48.1035C48.097 16.9362 48.0059 16.4577 47.8301 16.041C47.6608 15.6243 47.4004 15.2988 47.0488 15.0645C46.7038 14.8301 46.2611 14.7129 45.7207 14.7129ZM60.2031 20.9141C60.2031 21.6237 60.0306 22.2227 59.6855 22.7109C59.3405 23.1992 58.8359 23.5703 58.1719 23.8242C57.5143 24.0716 56.707 24.1953 55.75 24.1953C54.9948 24.1953 54.3438 24.14 53.7969 24.0293C53.2565 23.9251 52.7454 23.7624 52.2637 23.541V21.5586C52.778 21.7995 53.3542 22.0078 53.9922 22.1836C54.6367 22.3594 55.2454 22.4473 55.8184 22.4473C56.5736 22.4473 57.1172 22.3301 57.4492 22.0957C57.7812 21.8548 57.9473 21.5358 57.9473 21.1387C57.9473 20.9043 57.8789 20.696 57.7422 20.5137C57.612 20.3249 57.3646 20.1328 57 19.9375C56.6419 19.7357 56.1146 19.4948 55.418 19.2148C54.7344 18.9414 54.1582 18.668 53.6895 18.3945C53.2207 18.1211 52.8659 17.7923 52.625 17.4082C52.3841 17.0176 52.2637 16.5195 52.2637 15.9141C52.2637 14.957 52.6413 14.2311 53.3965 13.7363C54.1582 13.235 55.1641 12.9844 56.4141 12.9844C57.0781 12.9844 57.7031 13.0527 58.2891 13.1895C58.8815 13.3197 59.4609 13.5117 60.0273 13.7656L59.3047 15.4941C58.8164 15.2793 58.3249 15.1035 57.8301 14.9668C57.3418 14.8236 56.8438 14.752 56.3359 14.752C55.7435 14.752 55.291 14.8431 54.9785 15.0254C54.6725 15.2077 54.5195 15.4681 54.5195 15.8066C54.5195 16.0605 54.5944 16.2754 54.7441 16.4512C54.8939 16.627 55.151 16.8027 55.5156 16.9785C55.8867 17.1543 56.401 17.3724 57.0586 17.6328C57.7031 17.8802 58.2598 18.1406 58.7285 18.4141C59.2038 18.681 59.5684 19.0098 59.8223 19.4004C60.0762 19.791 60.2031 20.2956 60.2031 20.9141ZM72.2539 18.5703C72.2539 19.4688 72.1367 20.2663 71.9023 20.9629C71.668 21.6595 71.3262 22.2487 70.877 22.7305C70.4277 23.2057 69.8874 23.5703 69.2559 23.8242C68.6243 24.0716 67.9115 24.1953 67.1172 24.1953C66.375 24.1953 65.6947 24.0716 65.0762 23.8242C64.4577 23.5703 63.9206 23.2057 63.4648 22.7305C63.0156 22.2487 62.6673 21.6595 62.4199 20.9629C62.1725 20.2663 62.0488 19.4688 62.0488 18.5703C62.0488 17.3789 62.2539 16.3698 62.6641 15.543C63.0807 14.7096 63.6732 14.0749 64.4414 13.6387C65.2096 13.2025 66.1243 12.9844 67.1855 12.9844C68.1816 12.9844 69.0605 13.2025 69.8223 13.6387C70.584 14.0749 71.1797 14.7096 71.6094 15.543C72.0391 16.3763 72.2539 17.3854 72.2539 18.5703ZM64.4121 18.5703C64.4121 19.3581 64.5065 20.0319 64.6953 20.5918C64.8906 21.1517 65.1901 21.5814 65.5938 21.8809C65.9974 22.1738 66.5182 22.3203 67.1562 22.3203C67.7943 22.3203 68.3151 22.1738 68.7188 21.8809C69.1224 21.5814 69.4186 21.1517 69.6074 20.5918C69.7962 20.0319 69.8906 19.3581 69.8906 18.5703C69.8906 17.7826 69.7962 17.1152 69.6074 16.5684C69.4186 16.015 69.1224 15.5951 68.7188 15.3086C68.3151 15.0156 67.791 14.8691 67.1465 14.8691C66.196 14.8691 65.5026 15.1882 65.0664 15.8262C64.6302 16.4642 64.4121 17.3789 64.4121 18.5703ZM84.3145 13.1895V24H82.5078L82.1953 22.5449H82.0684C81.8405 22.916 81.5508 23.2253 81.1992 23.4727C80.8477 23.7135 80.457 23.8926 80.0273 24.0098C79.5977 24.1335 79.1452 24.1953 78.6699 24.1953C77.8561 24.1953 77.1595 24.0586 76.5801 23.7852C76.0072 23.5052 75.5677 23.0755 75.2617 22.4961C74.9557 21.9167 74.8027 21.168 74.8027 20.25V13.1895H77.1074V19.8203C77.1074 20.6602 77.2767 21.2884 77.6152 21.7051C77.9603 22.1217 78.4941 22.3301 79.2168 22.3301C79.9134 22.3301 80.4668 22.1868 80.877 21.9004C81.2871 21.6139 81.5768 21.1908 81.7461 20.6309C81.9219 20.071 82.0098 19.3841 82.0098 18.5703V13.1895H84.3145ZM93.084 12.9844C93.2663 12.9844 93.4648 12.9941 93.6797 13.0137C93.8945 13.0332 94.0801 13.0592 94.2363 13.0918L94.0215 15.2402C93.8848 15.2012 93.7155 15.1719 93.5137 15.1523C93.3184 15.1328 93.1426 15.123 92.9863 15.123C92.5762 15.123 92.1855 15.1914 91.8145 15.3281C91.4434 15.4583 91.1146 15.6602 90.8281 15.9336C90.5417 16.2005 90.3171 16.5358 90.1543 16.9395C89.9915 17.3431 89.9102 17.8118 89.9102 18.3457V24H87.6055V13.1895H89.4023L89.7148 15.0938H89.8223C90.0371 14.7096 90.304 14.3581 90.623 14.0391C90.9421 13.7201 91.3066 13.4661 91.7168 13.2773C92.1335 13.082 92.5892 12.9844 93.084 12.9844ZM100.594 24.1953C99.5716 24.1953 98.6862 23.9967 97.9375 23.5996C97.1888 23.2025 96.6126 22.5938 96.209 21.7734C95.8053 20.9531 95.6035 19.9115 95.6035 18.6484C95.6035 17.3333 95.8249 16.2591 96.2676 15.4258C96.7103 14.5924 97.3223 13.9772 98.1035 13.5801C98.8913 13.1829 99.793 12.9844 100.809 12.9844C101.453 12.9844 102.036 13.0495 102.557 13.1797C103.084 13.3034 103.53 13.4564 103.895 13.6387L103.211 15.4746C102.814 15.3118 102.407 15.1751 101.99 15.0645C101.574 14.9538 101.173 14.8984 100.789 14.8984C100.158 14.8984 99.6302 15.0384 99.207 15.3184C98.7904 15.5983 98.4779 16.015 98.2695 16.5684C98.0677 17.1217 97.9668 17.8086 97.9668 18.6289C97.9668 19.4232 98.071 20.0938 98.2793 20.6406C98.4876 21.181 98.7969 21.5911 99.207 21.8711C99.6172 22.1445 100.122 22.2812 100.721 22.2812C101.313 22.2812 101.844 22.2096 102.312 22.0664C102.781 21.9232 103.224 21.7376 103.641 21.5098V23.502C103.23 23.7363 102.791 23.9089 102.322 24.0195C101.854 24.1367 101.277 24.1953 100.594 24.1953ZM110.486 12.9844C111.45 12.9844 112.277 13.1829 112.967 13.5801C113.657 13.9772 114.188 14.5404 114.559 15.2695C114.93 15.9987 115.115 16.8711 115.115 17.8867V19.1172H107.898C107.924 20.1654 108.204 20.9727 108.738 21.5391C109.279 22.1055 110.034 22.3887 111.004 22.3887C111.694 22.3887 112.312 22.3236 112.859 22.1934C113.413 22.0566 113.982 21.8581 114.568 21.5977V23.4629C114.028 23.7168 113.478 23.9023 112.918 24.0195C112.358 24.1367 111.688 24.1953 110.906 24.1953C109.845 24.1953 108.911 23.9902 108.104 23.5801C107.303 23.1634 106.674 22.5449 106.219 21.7246C105.77 20.9043 105.545 19.8854 105.545 18.668C105.545 17.457 105.75 16.4284 106.16 15.582C106.57 14.7357 107.146 14.0911 107.889 13.6484C108.631 13.2057 109.497 12.9844 110.486 12.9844ZM110.486 14.7129C109.764 14.7129 109.178 14.9473 108.729 15.416C108.286 15.8848 108.025 16.5716 107.947 17.4766H112.869C112.863 16.9362 112.771 16.4577 112.596 16.041C112.426 15.6243 112.166 15.2988 111.814 15.0645C111.469 14.8301 111.027 14.7129 110.486 14.7129ZM131.98 24L130.584 20.0352H125.125L123.729 24H121.258L126.57 9.66406H129.168L134.471 24H131.98ZM129.979 18.0234L128.621 14.1172C128.569 13.9479 128.494 13.7103 128.396 13.4043C128.299 13.0918 128.201 12.776 128.104 12.457C128.006 12.1315 127.924 11.8581 127.859 11.6367C127.794 11.9036 127.713 12.2031 127.615 12.5352C127.524 12.8607 127.433 13.1667 127.342 13.4531C127.257 13.7396 127.192 13.9609 127.146 14.1172L125.779 18.0234H129.979ZM141.668 12.9844C142.951 12.9844 143.979 13.4531 144.754 14.3906C145.535 15.3281 145.926 16.7214 145.926 18.5703C145.926 19.7943 145.743 20.8262 145.379 21.666C145.021 22.4993 144.516 23.1309 143.865 23.5605C143.221 23.9837 142.469 24.1953 141.609 24.1953C141.062 24.1953 140.587 24.1237 140.184 23.9805C139.78 23.8372 139.435 23.6517 139.148 23.4238C138.862 23.1895 138.621 22.9355 138.426 22.6621H138.289C138.322 22.9225 138.351 23.2122 138.377 23.5312C138.41 23.8438 138.426 24.1302 138.426 24.3906V28.7949H136.121V13.1895H137.996L138.318 14.6836H138.426C138.628 14.3776 138.872 14.0944 139.158 13.834C139.451 13.5736 139.803 13.3685 140.213 13.2188C140.63 13.0625 141.115 12.9844 141.668 12.9844ZM141.053 14.8594C140.421 14.8594 139.913 14.9863 139.529 15.2402C139.152 15.4876 138.875 15.862 138.699 16.3633C138.53 16.8646 138.439 17.4928 138.426 18.248V18.5703C138.426 19.3711 138.507 20.0514 138.67 20.6113C138.839 21.1647 139.116 21.5879 139.5 21.8809C139.891 22.1673 140.418 22.3105 141.082 22.3105C141.642 22.3105 142.104 22.1576 142.469 21.8516C142.84 21.5456 143.117 21.1094 143.299 20.543C143.481 19.9766 143.572 19.3092 143.572 18.541C143.572 17.3757 143.364 16.4707 142.947 15.8262C142.537 15.1816 141.906 14.8594 141.053 14.8594ZM154.129 12.9844C155.411 12.9844 156.44 13.4531 157.215 14.3906C157.996 15.3281 158.387 16.7214 158.387 18.5703C158.387 19.7943 158.204 20.8262 157.84 21.666C157.482 22.4993 156.977 23.1309 156.326 23.5605C155.682 23.9837 154.93 24.1953 154.07 24.1953C153.523 24.1953 153.048 24.1237 152.645 23.9805C152.241 23.8372 151.896 23.6517 151.609 23.4238C151.323 23.1895 151.082 22.9355 150.887 22.6621H150.75C150.783 22.9225 150.812 23.2122 150.838 23.5312C150.87 23.8438 150.887 24.1302 150.887 24.3906V28.7949H148.582V13.1895H150.457L150.779 14.6836H150.887C151.089 14.3776 151.333 14.0944 151.619 13.834C151.912 13.5736 152.264 13.3685 152.674 13.2188C153.09 13.0625 153.576 12.9844 154.129 12.9844ZM153.514 14.8594C152.882 14.8594 152.374 14.9863 151.99 15.2402C151.613 15.4876 151.336 15.862 151.16 16.3633C150.991 16.8646 150.9 17.4928 150.887 18.248V18.5703C150.887 19.3711 150.968 20.0514 151.131 20.6113C151.3 21.1647 151.577 21.5879 151.961 21.8809C152.352 22.1673 152.879 22.3105 153.543 22.3105C154.103 22.3105 154.565 22.1576 154.93 21.8516C155.301 21.5456 155.577 21.1094 155.76 20.543C155.942 19.9766 156.033 19.3092 156.033 18.541C156.033 17.3757 155.825 16.4707 155.408 15.8262C154.998 15.1816 154.367 14.8594 153.514 14.8594Z" fill="#0F0F0F"/>
</g>
<g filter="url(#filter1_d_4_37)">
<path d="M2 9C2 6.23858 4.23858 4 7 4H21C23.7614 4 26 6.23858 26 9V23C26 25.7614 23.7614 28 21 28H7C4.23858 28 2 25.7614 2 23V9Z" fill="white"/>
<path fill-rule="evenodd" clip-rule="evenodd" d="M6 9C6 7.89543 6.89543 7 8 7H20C21.1046 7 22 7.89543 22 9V23.3386C22 25.1853 19.7109 26.0454 18.4948 24.6556L14 19.5186L9.50515 24.6556C8.28907 26.0454 6 25.1853 6 23.3386V9ZM20 9L8 9V23.3386L12.4948 18.2016C13.2917 17.2909 14.7083 17.2909 15.5052 18.2016L20 23.3386V9Z" fill="#0F0F0F"/>
</g>
<defs>
<filter id="filter0_d_4_37" x="26.875" y="8.66406" width="133.512" height="23.1309" filterUnits="userSpaceOnUse" color-interpolation-filters="sRGB">
<feFlood flood-opacity="0" result="BackgroundImageFix"/>
<feColorMatrix in="SourceAlpha" type="matrix" values="0 0 0 0 0 0 0 0 0 0 0 0 0 0 0 0 0 0 127 0" result="hardAlpha"/>
<feOffset dy="1"/>
<feGaussianBlur stdDeviation="1"/>
<feComposite in2="hardAlpha" operator="out"/>
<feColorMatrix type="matrix" values="0 0 0 0 0 0 0 0 0 0 0 0 0 0 0 0 0 0 0.25 0"/>
<feBlend mode="normal" in2="BackgroundImageFix" result="effect1_dropShadow_4_37"/>
<feBlend mode="normal" in="SourceGraphic" in2="effect1_dropShadow_4_37" result="shape"/>
</filter>
<filter id="filter1_d_4_37" x="0" y="3" width="28" height="28" filterUnits="userSpaceOnUse" color-interpolation-filters="sRGB">
<feFlood flood-opacity="0" result="BackgroundImageFix"/>
<feColorMatrix in="SourceAlpha" type="matrix" values="0 0 0 0 0 0 0 0 0 0 0 0 0 0 0 0 0 0 127 0" result="hardAlpha"/>
<feOffset dy="1"/>
<feGaussianBlur stdDeviation="1"/>
<feComposite in2="hardAlpha" operator="out"/>
<feColorMatrix type="matrix" values="0 0 0 0 0 0 0 0 0 0 0 0 0 0 0 0 0 0 0.25 0"/>
<feBlend mode="normal" in2="BackgroundImageFix" result="effect1_dropShadow_4_37"/>
<feBlend mode="normal" in="SourceGraphic" in2="effect1_dropShadow_4_37" result="shape"/>
</filter>
</defs>
</svg>
